<?xml version="1.0" standalone="no"?>
<!DOCTYPE svg PUBLIC "-//W3C//DTD SVG 20010904//EN"
 "http://www.w3.org/TR/2001/REC-SVG-20010904/DTD/svg10.dtd">
<svg version="1.0" xmlns="http://www.w3.org/2000/svg"
 width="260.000000pt" height="260.000000pt" viewBox="0 0 260.000000 260.000000"
 preserveAspectRatio="xMidYMid meet">
<metadata>
Created by potrace 1.14, written by Peter Selinger 2001-2017
</metadata>
<g transform="translate(0.000000,260.000000) scale(0.100000,-0.100000)"
fill="#000000" stroke="none">
<path d="M1225 2546 c-174 -170 -158 -456 33 -602 l44 -34 27 19 c174 124 224
355 116 536 -42 71 -112 135 -147 135 -9 0 -42 -24 -73 -54z"/>
<path d="M808 2453 c-28 -71 -3 -180 54 -228 26 -22 118 -56 131 -48 16 10 29
58 28 106 -2 100 -68 173 -176 193 -20 4 -28 -1 -37 -23z"/>
<path d="M1716 2465 c-98 -35 -151 -137 -125 -240 10 -41 14 -45 42 -45 116 0
206 141 167 260 -15 44 -24 47 -84 25z"/>
<path d="M588 2171 c-21 -4 -56 -16 -78 -26 -35 -16 -40 -22 -39 -49 1 -17 7
-52 14 -77 60 -215 274 -337 489 -277 39 11 77 24 84 31 22 18 7 102 -33 183
-63 130 -186 212 -327 219 -40 2 -90 0 -110 -4z"/>
<path d="M1880 2177 c-3 -3 -20 -7 -38 -10 -53 -8 -138 -56 -187 -104 -59 -59
-108 -159 -113 -232 l-4 -56 39 -17 c250 -106 533 62 558 333 3 36 2 37 -48
58 -48 20 -195 40 -207 28z"/>
<path d="M1101 1950 c-21 -61 12 -131 73 -155 38 -15 41 -15 53 1 30 42 2 134
-49 160 -51 27 -66 25 -77 -6z"/>
<path d="M1454 1969 c-60 -17 -99 -91 -82 -157 8 -29 12 -32 36 -26 62 14 102
62 102 125 0 50 -17 69 -56 58z"/>
<path d="M458 1736 c-43 -15 -95 -51 -108 -76 -21 -39 67 -108 146 -114 55 -5
96 7 141 41 49 36 56 56 32 87 -44 56 -143 85 -211 62z"/>
<path d="M2031 1735 c-43 -13 -111 -68 -111 -90 0 -16 47 -63 83 -81 50 -26
124 -25 179 2 46 23 78 56 78 81 0 7 -12 24 -27 39 -51 51 -131 70 -202 49z"/>
<path d="M985 1701 c-11 -5 -30 -19 -43 -30 -18 -18 -20 -26 -12 -41 14 -27
62 -50 103 -50 41 0 102 38 102 64 0 42 -99 79 -150 57z"/>
<path d="M1525 1696 c-16 -7 -38 -22 -48 -33 -17 -19 -16 -21 9 -46 46 -47
131 -48 174 -2 27 29 22 48 -22 75 -38 23 -71 25 -113 6z"/>
<path d="M847 1564 c-1 -1 -20 -4 -43 -7 -90 -13 -195 -75 -252 -150 -38 -49
-69 -128 -77 -189 l-7 -56 48 -23 c41 -19 67 -23 154 -23 99 -1 109 1 170 32
110 54 193 157 219 272 19 80 16 89 -34 111 -36 16 -169 41 -178 33z"/>
<path d="M1680 1559 c-46 -7 -114 -32 -135 -49 -18 -15 4 -121 37 -185 49 -96
140 -169 245 -200 77 -23 189 -16 261 15 l52 23 -6 45 c-25 183 -169 331 -339
349 -22 2 -47 5 -55 6 -8 2 -35 0 -60 -4z"/>
<path d="M1183 1499 c-33 -10 -82 -60 -84 -87 -7 -74 4 -102 37 -96 67 12 111
75 101 141 -8 47 -15 52 -54 42z"/>
<path d="M1372 1477 c-17 -66 13 -127 76 -154 44 -18 62 -4 62 49 0 69 -31
108 -101 128 -27 8 -29 6 -37 -23z"/>
<path d="M1111 1295 c2 -5 21 -42 41 -81 57 -111 72 -173 72 -304 1 -93 -4
-130 -23 -190 -40 -130 -110 -252 -181 -317 -82 -73 -89 -77 -126 -65 -43 13
-83 3 -137 -35 -34 -23 -36 -28 -20 -34 53 -21 150 -1 170 35 5 9 33 17 72 21
60 6 165 38 185 55 4 5 24 -13 44 -38 68 -90 87 -105 108 -92 16 10 86 91 105
122 4 7 30 1 70 -15 67 -26 184 -45 178 -29 -2 6 -29 30 -60 55 -132 107 -229
331 -230 527 0 107 27 216 79 315 22 41 36 72 32 70 -17 -11 -95 -120 -124
-175 l-33 -62 -12 32 c-6 18 -11 42 -12 54 -1 12 -9 -4 -18 -34 l-17 -55 -28
55 c-31 60 -149 224 -135 185z"/>
<path d="M929 1100 c-100 -30 -161 -163 -121 -262 13 -32 33 -35 88 -12 78 32
124 100 124 183 0 94 -19 113 -91 91z"/>
<path d="M1601 1092 c-48 -89 3 -217 104 -263 60 -28 81 -25 94 12 26 74 4
165 -51 215 -56 51 -129 69 -147 36z"/>
<path d="M1715 336 l-30 -12 29 -27 c16 -15 43 -29 61 -33 34 -6 102 0 112 9
6 7 -84 67 -101 68 -6 0 -18 2 -26 4 -9 1 -29 -3 -45 -9z"/>
<path d="M1480 310 c-32 -20 31 -120 98 -154 47 -23 175 -47 180 -33 11 30
-105 158 -161 176 -46 15 -102 21 -117 11z"/>
<path d="M1032 290 c-17 -4 -47 -18 -65 -30 -34 -24 -112 -114 -123 -144 -6
-17 -3 -18 42 -13 93 11 153 36 200 82 24 25 45 54 46 65 0 11 1 26 2 33 1 14
-52 18 -102 7z"/>
<path d="M1390 245 c-6 -19 -12 -47 -12 -62 -1 -32 30 -109 64 -155 l22 -32
13 30 c14 34 17 142 4 176 -9 24 -58 78 -72 78 -4 0 -13 -16 -19 -35z"/>
<path d="M1164 238 c-40 -42 -53 -83 -49 -147 7 -107 29 -118 75 -39 40 72 48
129 24 180 l-19 39 -31 -33z"/>
</g>
</svg>
